<?xml version="1.0" standalone="no"?>
<!DOCTYPE svg PUBLIC "-//W3C//DTD SVG 20010904//EN"
 "http://www.w3.org/TR/2001/REC-SVG-20010904/DTD/svg10.dtd">
<svg version="1.0" xmlns="http://www.w3.org/2000/svg"
 width="1280.000000pt" height="1280.000000pt" viewBox="0 0 1280.000000 1280.000000"
 preserveAspectRatio="xMidYMid meet">
<metadata>
Created by potrace 1.14, written by Peter Selinger 2001-2017
</metadata>
<g transform="translate(0.000000,1280.000000) scale(0.100000,-0.100000)"
fill="#000000" stroke="none">
<path d="M7752 12673 c-67 -70 -161 -169 -209 -220 -48 -50 -146 -153 -218
-228 -71 -76 -164 -173 -205 -216 -41 -43 -131 -137 -200 -210 -69 -73 -138
-145 -155 -161 l-30 -29 66 -62 c36 -34 92 -86 125 -116 32 -29 104 -95 159
-146 55 -51 114 -105 130 -120 31 -28 198 -181 245 -225 15 -14 69 -63 120
-110 52 -47 113 -103 136 -125 79 -75 196 -180 208 -187 7 -4 109 93 268 255
141 144 400 408 576 586 l319 324 -41 36 c-22 20 -50 45 -62 56 -11 11 -72 67
-134 125 -63 58 -144 132 -180 166 -36 33 -87 80 -114 105 -27 24 -63 58 -81
74 -17 17 -74 69 -126 116 -52 48 -110 102 -130 120 -20 19 -78 72 -129 119
-119 109 -129 117 -177 163 l-39 38 -122 -128z"/>
<path d="M5544 12080 c3 -30 8 -91 11 -135 3 -45 7 -102 10 -128 12 -111 14
-135 21 -187 8 -69 49 -320 63 -380 5 -25 13 -60 16 -79 3 -19 8 -37 10 -41 2
-3 6 -18 9 -32 25 -138 139 -476 219 -648 97 -211 133 -275 242 -440 325 -490
796 -841 1355 -1009 58 -17 119 -36 135 -41 42 -13 279 -58 345 -65 30 -4 69
-8 85 -11 157 -23 637 -23 775 0 14 3 48 7 75 10 70 9 136 18 160 22 11 3 36
7 55 9 19 3 46 9 60 12 14 4 32 8 40 9 40 5 88 15 120 24 19 6 51 13 70 16 19
3 38 8 43 11 4 2 18 6 31 9 13 2 64 16 112 30 49 14 94 27 99 28 6 2 17 6 25
9 8 3 56 19 105 36 252 85 482 187 730 321 74 40 287 169 310 187 6 4 35 25
65 45 63 43 80 56 206 155 112 87 241 206 342 316 l24 25 -99 124 c-105 133
-102 128 -253 323 -116 150 -93 120 -300 390 -89 116 -166 217 -173 225 -11
14 -71 91 -90 115 -4 6 -26 35 -49 65 -51 66 -60 73 -73 57 -11 -13 -137 -124
-219 -192 -27 -22 -54 -45 -60 -50 -16 -15 -124 -102 -192 -156 -163 -128
-485 -348 -638 -435 -37 -21 -87 -50 -110 -63 -52 -30 -314 -161 -321 -161 -6
0 -28 -10 -130 -55 -36 -16 -271 -95 -297 -100 -10 -2 -22 -6 -26 -9 -5 -3
-19 -7 -33 -9 -13 -3 -42 -10 -64 -15 -22 -6 -51 -13 -65 -16 -192 -34 -189
-33 -285 -42 -90 -8 -357 -7 -395 1 -14 3 -43 8 -64 10 -78 9 -121 17 -137 25
-9 5 -19 7 -22 3 -4 -3 -24 2 -47 11 -22 9 -40 14 -40 11 0 -2 -51 13 -113 35
-109 37 -265 108 -373 169 -46 26 -222 146 -234 160 -3 4 -36 32 -75 63 -100
81 -256 238 -345 348 -25 30 -49 60 -55 66 -50 55 -229 323 -309 464 -72 126
-188 372 -242 512 -20 51 -38 95 -40 98 -3 2 -2 -20 0 -50z"/>
<path d="M4117 10184 c-1 -1 -58 -5 -127 -8 -69 -3 -145 -8 -170 -11 -54 -6
-195 -25 -230 -30 -14 -2 -41 -7 -60 -10 -19 -3 -46 -8 -60 -10 -14 -3 -35 -7
-48 -10 -13 -2 -31 -6 -40 -9 -9 -3 -30 -8 -47 -11 -16 -2 -88 -21 -160 -40
-71 -20 -138 -37 -147 -40 -68 -16 -394 -133 -503 -180 -16 -7 -46 -19 -65
-28 -19 -8 -64 -27 -100 -43 -89 -38 -492 -242 -565 -286 -33 -20 -107 -64
-165 -98 -158 -93 -360 -224 -360 -233 0 -7 178 -333 200 -367 6 -8 13 -22 17
-30 3 -8 34 -64 68 -125 34 -60 77 -137 95 -170 18 -33 41 -74 51 -92 10 -18
35 -63 55 -100 21 -37 49 -88 64 -113 14 -25 34 -61 43 -80 10 -19 27 -51 39
-70 11 -19 33 -57 47 -85 15 -27 67 -121 115 -207 l87 -157 37 17 c20 9 45 23
55 31 9 8 17 11 17 8 0 -14 300 174 490 307 277 194 429 291 580 367 92 46
258 117 291 124 9 2 45 12 81 23 35 11 82 23 104 26 21 4 46 8 54 11 112 31
505 37 702 10 18 -3 56 -8 83 -11 40 -5 165 -30 245 -49 8 -2 53 -15 99 -30
293 -94 500 -272 573 -495 33 -101 34 -276 3 -399 -69 -267 -269 -528 -518
-675 -80 -48 -206 -96 -297 -115 -30 -6 -66 -14 -80 -16 -74 -16 -177 -33
-240 -40 -81 -9 -151 -17 -190 -20 -56 -5 -429 -5 -490 -1 -25 2 -86 7 -135
10 -50 4 -100 8 -111 10 -11 2 -47 7 -79 11 -33 4 -71 8 -85 11 -14 2 -43 6
-65 9 -22 3 -56 8 -75 11 -19 2 -51 7 -70 9 -19 3 -60 9 -90 13 -90 13 -116
10 -112 -13 3 -18 59 -195 184 -585 27 -85 53 -166 58 -180 10 -27 135 -422
152 -480 6 -19 14 -44 19 -55 4 -11 40 -121 79 -245 39 -124 85 -265 101 -314
16 -49 29 -93 29 -97 0 -3 7 -23 15 -42 l15 -36 126 44 c131 47 350 109 419
119 22 4 47 8 55 11 18 5 56 12 119 21 25 4 55 9 66 11 42 10 393 12 450 3 33
-6 78 -12 100 -15 100 -14 254 -65 364 -122 80 -42 152 -90 159 -105 2 -5 8
-8 13 -8 15 0 117 -100 170 -166 117 -147 212 -359 244 -544 4 -19 9 -48 12
-65 13 -72 11 -363 -3 -450 -20 -122 -20 -124 -34 -175 -11 -42 -14 -52 -24
-99 -3 -11 -10 -29 -16 -40 -6 -12 -9 -21 -6 -21 3 0 -7 -28 -21 -62 -124
-310 -282 -534 -523 -742 -131 -114 -318 -220 -515 -292 -29 -10 -174 -50
-215 -59 -8 -2 -58 -13 -110 -24 -145 -32 -306 -56 -515 -78 -85 -8 -475 -9
-564 0 -597 58 -1111 268 -1551 633 -155 130 -357 336 -460 473 -14 18 -29 38
-35 45 -39 46 -75 96 -75 105 0 5 -4 11 -9 13 -4 1 -41 53 -80 113 -39 61 -75
115 -79 120 -43 56 -322 601 -322 631 0 3 -11 29 -24 57 -55 121 -150 393
-231 662 -36 117 -128 485 -140 555 -3 19 -10 53 -15 75 -5 22 -11 54 -14 70
-3 17 -8 41 -11 55 -4 14 -8 39 -11 55 -3 17 -9 53 -14 80 -18 94 -23 126 -35
210 -3 28 -8 57 -10 65 -2 8 -7 42 -11 75 -7 69 -23 97 -25 45 -1 -19 -3 -48
-4 -65 -13 -145 -18 -351 -18 -695 0 -370 3 -504 18 -660 3 -30 8 -84 10 -120
3 -36 7 -83 10 -105 2 -22 7 -60 10 -85 3 -25 8 -61 11 -80 3 -19 6 -48 8 -65
6 -51 16 -117 28 -180 5 -33 12 -73 15 -90 11 -75 61 -305 88 -408 10 -34 21
-80 26 -102 17 -71 97 -328 119 -380 5 -11 22 -58 38 -105 64 -182 203 -484
301 -654 28 -49 51 -90 51 -92 0 -1 24 -40 53 -86 180 -285 343 -493 569 -723
403 -411 879 -725 1433 -945 172 -69 521 -175 640 -196 17 -2 38 -7 47 -10 19
-6 34 -9 98 -19 25 -4 54 -9 65 -12 11 -2 34 -6 50 -8 17 -3 44 -7 60 -9 17
-3 55 -7 85 -11 30 -4 69 -8 85 -11 57 -9 500 -12 560 -4 175 23 226 33 320
67 39 14 94 32 124 40 78 21 275 95 279 105 2 4 10 8 19 8 21 0 252 117 361
184 116 70 231 148 303 206 31 25 74 58 95 75 22 16 102 92 179 170 141 141
268 299 364 454 54 86 163 297 176 341 4 14 11 30 15 35 11 15 65 179 94 285
29 107 54 231 62 305 3 28 7 61 10 75 23 122 22 537 -1 720 -31 244 -56 376
-114 600 -72 280 -190 622 -298 858 -18 41 -33 76 -33 78 0 2 -22 51 -50 109
-27 58 -50 108 -50 110 0 5 52 -1 95 -10 11 -2 47 -7 80 -10 33 -3 71 -8 85
-11 103 -18 554 -26 690 -12 98 10 163 18 185 23 11 2 45 8 75 14 79 16 270
71 302 87 15 8 31 15 35 15 40 5 230 103 331 170 118 79 256 204 338 305 21
27 42 51 45 54 21 17 148 226 201 331 73 145 75 150 124 294 138 414 279 652
531 902 222 221 522 418 753 496 147 50 188 58 330 62 94 2 131 -1 205 -20 89
-22 245 -90 245 -107 0 -4 6 -8 13 -8 15 0 134 -104 179 -156 18 -22 41 -48
51 -59 47 -51 140 -203 193 -315 77 -162 168 -436 199 -600 3 -14 7 -36 10
-50 14 -65 24 -118 29 -161 3 -19 7 -50 10 -69 6 -34 10 -79 24 -230 9 -99 8
-541 -1 -655 -9 -113 -16 -183 -23 -215 -3 -14 -7 -41 -10 -60 -2 -19 -9 -53
-15 -74 -6 -22 -12 -51 -14 -65 -2 -14 -4 -27 -6 -28 -2 -3 -3 -9 -13 -48 -60
-246 -234 -581 -403 -775 -12 -14 -31 -36 -43 -50 -46 -54 -122 -130 -181
-181 -33 -30 -74 -66 -91 -81 -34 -30 -254 -188 -262 -188 -3 0 -24 -13 -48
-29 -139 -93 -530 -276 -631 -295 -12 -2 -33 -8 -47 -14 -30 -12 -98 -32 -125
-37 -11 -2 -20 -4 -20 -5 0 -1 -9 -3 -20 -5 -30 -6 -88 -18 -105 -22 -8 -2
-33 -6 -55 -9 -22 -2 -67 -9 -100 -13 -67 -10 -400 -7 -455 3 -215 40 -329 79
-485 164 -154 83 -340 254 -453 416 -87 124 -166 273 -221 416 -18 47 -37 94
-42 105 -13 29 -76 263 -90 335 -11 55 -20 69 -25 37 -1 -7 -9 -50 -18 -97 -8
-47 -18 -103 -21 -125 -3 -22 -8 -51 -10 -65 -9 -50 -21 -153 -32 -280 -15
-169 -8 -638 12 -737 2 -11 6 -44 10 -74 3 -30 8 -62 11 -72 3 -10 7 -32 9
-49 10 -75 76 -324 96 -360 5 -10 9 -24 9 -31 0 -20 66 -180 117 -281 63 -127
134 -242 210 -344 75 -99 80 -105 188 -215 424 -432 1022 -647 1655 -594 186
15 417 65 551 118 27 10 49 16 49 12 0 -4 5 -2 12 5 7 7 20 12 30 12 10 0 18
4 18 8 0 5 6 9 13 9 20 0 255 115 342 168 404 242 727 577 997 1030 67 113
208 403 208 428 0 7 4 17 8 22 5 6 14 24 20 40 6 17 17 44 23 60 7 17 13 32
14 35 0 3 17 55 37 115 35 105 87 287 94 330 2 11 15 70 29 130 23 105 68 389
80 505 3 30 8 84 12 120 13 119 6 574 -11 770 -2 25 -7 88 -11 140 -4 52 -9
103 -10 112 -2 9 -6 48 -10 85 -3 37 -8 80 -11 95 -3 15 -7 42 -9 60 -4 48
-18 138 -35 238 -5 30 -12 72 -16 94 -3 21 -7 46 -9 55 -2 9 -11 52 -20 96 -9
44 -19 89 -21 100 -5 30 -70 282 -89 345 -9 30 -18 62 -20 70 -14 55 -110 319
-137 379 -10 24 -28 67 -39 95 -51 127 -181 368 -283 521 -53 80 -141 202
-156 215 -3 3 -23 28 -45 55 -59 75 -239 253 -330 326 -229 186 -468 317 -745
409 -128 43 -337 93 -350 85 -5 -3 -11 -1 -15 5 -4 6 -10 8 -14 6 -4 -3 -25
-1 -47 4 -147 33 -534 30 -769 -6 -68 -11 -79 -13 -105 -18 -65 -14 -130 -27
-137 -28 -5 0 -16 -4 -26 -10 -10 -5 -31 -12 -45 -14 -117 -21 -372 -133 -505
-222 -67 -45 -376 -343 -473 -457 -143 -167 -345 -440 -400 -540 -6 -11 -34
-57 -61 -101 -64 -103 -122 -207 -223 -399 -29 -55 -57 -106 -62 -112 -6 -7
-7 -13 -3 -13 4 0 3 -6 -3 -12 -5 -7 -51 -94 -102 -193 -51 -99 -103 -198
-115 -220 -113 -202 -170 -290 -254 -400 -114 -148 -283 -286 -435 -355 -70
-32 -219 -75 -296 -85 -133 -18 -138 -17 -285 41 -77 31 -153 62 -170 69 -16
7 -106 43 -200 80 -93 37 -183 73 -200 80 -16 7 -100 41 -184 74 -85 34 -157
63 -159 65 -1 2 14 14 35 27 21 13 40 25 43 29 3 3 32 23 65 44 33 21 92 62
130 89 60 44 103 78 245 192 33 27 330 323 355 355 207 259 309 421 416 655
124 275 201 617 201 895 0 63 -10 240 -17 290 -11 84 -20 129 -50 245 -68 261
-174 478 -341 701 -62 83 -234 261 -319 330 -33 27 -62 52 -65 55 -3 3 -32 23
-65 44 -33 22 -62 42 -65 45 -10 12 -158 93 -250 137 -89 43 -235 101 -255
103 -3 0 -22 7 -42 15 -38 14 -135 42 -183 51 -14 3 -41 9 -60 14 -39 10 -144
29 -205 36 -22 2 -56 6 -75 9 -19 2 -93 7 -165 10 -71 4 -147 8 -168 9 -20 1
-38 1 -40 0z"/>
</g>
</svg>
